<svg class="{{ with .class }}{{ . }} {{ end }}icon icon-irc" width="24" height="24" viewBox="0 0 288 288"><g><g><path d="M45.9.3C20.77.3.27 20.8.27 45.93v196.43c0 25.1 20.5 45.6 45.6 45.6h196.84c25.12 0 45.6-20.5 45.6-45.6V45.92c0-25.1-20.48-45.6-45.6-45.6zm0 17.64H242.7c15.66 0 28 12.33 28 27.98v196.43c0 15.65-12.34 27.98-28 27.98H45.9c-15.66 0-28-12.33-28-27.98V45.92c0-15.65 12.34-27.98 28-27.98zm146.15 141.53c0-7.16 1.54-13.76 4.6-19.8 3.06-6.08 7.33-10.85 12.83-14.3 5.53-3.48 11.84-5.22 18.9-5.22 3.75 0 7.6.46 11.55 1.36 3.97.88 7.3 2.36 10 4.47 2.7 2.12 4.05 4.98 4.05 8.6 0 2.87-.85 5.28-2.56 7.2-1.67 1.94-3.77 2.9-6.28 2.9-1.22 0-2.4-.2-3.58-.6-1.13-.4-2.27-.83-3.45-1.28-1.1-.5-2.32-.9-3.62-1.2-1.27-.33-2.86-.5-4.8-.5-3.5 0-6.5.84-8.92 2.5-2.38 1.6-4.18 3.83-5.4 6.6-1.17 2.77-1.76 5.85-1.76 9.28 0 3.33.58 6.43 1.76 9.3 1.16 2.85 2.86 5.1 5.06 6.77 2.25 1.67 4.9 2.5 7.96 2.5 3.47 0 6.96-.66 10.48-1.96 3.5-1.3 5.6-1.97 6.28-1.97 1.62 0 3.1.47 4.45 1.42 1.34.94 2.4 2.2 3.16 3.7.8 1.5 1.2 3.03 1.2 4.6 0 3.34-1.45 6.15-4.38 8.44-2.9 2.3-6.33 3.96-10.34 5-4 1.1-7.63 1.62-10.88 1.62-5.35 0-10.26-.98-14.72-2.96-4.4-2-8.26-4.8-11.55-8.45-3.28-3.7-5.78-7.92-7.5-12.7-1.7-4.8-2.56-9.93-2.56-15.32zm-45.8 26.67v-53.36c0-3.2 1-5.85 3-7.96 2-2.17 4.6-3.24 7.75-3.24 2.6 0 4.86.7 6.76 2.1 1.93 1.34 3.28 2.94 4.05 4.78 4.66-5.53 9.64-8.3 14.95-8.3 2.9 0 5.5 1.05 7.7 3.17 2.25 2.08 3.36 4.75 3.36 8.04 0 3.37-1.03 5.83-3.16 7.36-2.07 1.54-5.5 3-10.32 4.4-4.9 1.4-8.2 3.14-9.93 5.26-1.7 2.04-2.57 5.8-2.57 11.2v26.53c0 3.2-1 5.9-3.03 8.1-1.98 2.17-4.57 3.24-7.77 3.24-3.15 0-5.74-1.07-7.76-3.24-2-2.2-2.98-4.9-2.98-8.1zm-31.12 0v-53.36c0-3.2 1-5.85 2.97-7.96 2.03-2.17 4.62-3.24 7.77-3.24 3.2 0 5.78 1.07 7.76 3.24 2.03 2.1 3.04 4.77 3.04 7.96v53.36c0 3.2-1 5.9-3.04 8.1-1.98 2.17-4.57 3.24-7.76 3.24-3.15 0-5.74-1.07-7.77-3.24-1.98-2.2-2.97-4.9-2.97-8.1zm-2.1-84.08c0-3.52 1.27-6.55 3.8-9.12 2.5-2.57 5.53-3.85 9.04-3.85 3.55 0 6.6 1.25 9.12 3.76 2.5 2.52 3.76 5.6 3.76 9.2 0 3.72-1.26 6.83-3.78 9.3-2.54 2.5-5.58 3.72-9.13 3.72-3.5 0-6.53-1.26-9.05-3.8-2.52-2.5-3.78-5.6-3.78-9.24zM43.48 186.9l2.43-18.2h-5.2c-2.3 0-3.97-.63-5.05-1.95-1.08-1.35-1.62-2.94-1.62-4.8 0-1.84.54-3.38 1.62-4.65 1.08-1.3 2.77-1.96 5.06-1.96h7.04l2.23-16.6H44.7c-2.26 0-3.93-.66-5-1.97-1.1-1.35-1.63-2.95-1.63-4.8 0-1.88.54-3.46 1.62-4.72 1.06-1.3 2.73-1.96 5-1.96h7.27l2.97-21.7c.32-2.3 1.04-4.08 2.16-5.33 1.2-1.26 3.03-1.9 5.55-1.9 1.8 0 3.3.52 4.46 1.56 1.2 1 1.78 2.36 1.78 4.12 0 .77-.18 2.43-.54 5l-2.5 18.23h12.5l2.9-21.7c.3-2.28 1.03-4.07 2.16-5.32 1.16-1.26 3-1.9 5.52-1.9 1.8 0 3.3.52 4.46 1.56 1.17 1.04 1.76 2.4 1.76 4.12 0 .77-.18 2.43-.54 5l-2.5 18.23h5.27c2.34 0 4.03.64 5.06 1.95 1.08 1.26 1.62 2.84 1.62 4.73 0 1.84-.54 3.44-1.62 4.8-1.08 1.3-2.77 1.95-5.06 1.95h-7.03l-2.23 16.6h5.3c2.33 0 4.02.65 5.06 1.9 1.03 1.27 1.55 2.84 1.55 4.73 0 1.9-.53 3.5-1.6 4.8-1.05 1.3-2.7 1.95-5 1.95h-7.37l-2.9 21.62c-.32 2.26-1.04 4.02-2.16 5.27-1.13 1.26-2.98 1.88-5.54 1.88-1.8 0-3.3-.5-4.53-1.47-1.18-1.03-1.76-2.43-1.76-4.2 0-.9.2-2.52.6-4.9l2.5-18.2h-12.5l-2.9 21.62c-.3 2.3-1.05 4.08-2.22 5.34-1.13 1.22-2.98 1.82-5.54 1.82-1.76 0-3.24-.5-4.46-1.47-1.17-1.04-1.76-2.44-1.76-4.2 0-.9.2-2.53.6-4.9zm30.8-31.56l2.23-16.6H63.95l-2.23 16.6z" style="line-height:normal;font-variant-ligatures:normal;font-variant-position:normal;font-variant-caps:normal;font-variant-numeric:normal;font-variant-alternates:normal;font-feature-settings:normal;text-indent:0;text-align:start;text-decoration-line:none;text-decoration-style:solid;text-decoration-color:#000000;text-transform:none;text-orientation:mixed;white-space:normal;shape-padding:0;isolation:auto;mix-blend-mode:normal;solid-color:#000000;solid-opacity:1;vector-effect:none" color="#000" font-family="sans-serif" overflow="visible" enable-background="accumulate"/></g></g></svg>