<svg
   viewBox="0 0 512 512"
   style="enable-background:new 0 0 512 512;"
   height="24px"
   width="24px"
   class="{{ with .class }}{{ . }} {{ end }}icon icon-mastodon">
  <defs
     id="defs12" />
  <g
     id="comp_x5F_207-mastodon"
     transform="translate(5.5620734e-5,6.3003975e-4)">
    <g
       id="g4">
      <path
         id="path2"
         d="m 460.491,180.711 c 0,-95.137 -62.347,-123.03 -62.347,-123.03 -61.172,-28.091 -223.648,-27.798 -284.232,0 0,0 -62.347,27.894 -62.347,123.03 0,113.243 -6.46,253.89 103.357,282.96 39.639,10.47 73.7,12.722 101.105,11.156 49.721,-2.74 77.615,-17.717 77.615,-17.717 l -1.662,-36.117 c 0,0 -35.531,11.16 -75.463,9.886 -39.543,-1.369 -81.238,-4.306 -87.698,-52.852 -0.588,-4.307 -0.88,-8.809 -0.88,-13.604 83.782,20.454 155.229,8.907 174.904,6.558 54.908,-6.558 102.77,-40.423 108.838,-71.353 9.594,-48.74 8.81,-118.917 8.81,-118.917 z m -73.505,122.54 h -45.61 V 191.477 c 0,-48.644 -62.644,-50.504 -62.644,6.754 v 61.173 H 233.418 V 198.23 c 0,-57.258 -62.641,-55.398 -62.641,-6.754 V 303.25 H 125.07 c 0,-119.505 -5.089,-144.759 18.009,-171.282 25.35,-28.287 78.105,-30.146 101.595,5.97 l 11.354,19.086 11.353,-19.086 c 23.589,-36.313 76.441,-34.061 101.595,-5.97 23.198,26.72 18.01,51.875 18.01,171.283 z"
         inkscape:connector-curvature="0" />
    </g>
  </g>
  <g
     id="Layer_1" />
  <rect
     ry="34.835079"
     y="16.404617"
     x="-494.94626"
     height="479.19077"
     width="477.89252"
     id="rect821"
     style="opacity:1;fill:none;fill-opacity:1;stroke:#000000;stroke-width:31.21066666;stroke-linecap:butt;stroke-linejoin:round;stroke-miterlimit:4;stroke-dasharray:none;stroke-opacity:1;paint-order:normal"
     transform="scale(-1,1)" />
</svg>
