<svg class="{{ with .class }}{{ . }} {{ end }}icon icon-youtube" width="24" height="24" viewBox="0 0 384 384"><path d="M93.03.8l26.44 86.8v56.37h21.97V84.6L167.36.8h-22.44l-13.97 57.37h-1L115.5.8zM195.8 35.73c-8.9 0-16.14 2.62-21.44 7.47-5.3 4.8-8 11.3-8 19.46v54.9c0 8.96 2.82 16.13 8 21.43 5.17 5.3 11.84 7.97 20.45 7.97 8.93 0 15.84-2.87 20.97-7.98 5.04-5.2 7.47-11.92 7.47-20.96v-54.9c0-8.03-2.3-14.83-7.47-19.94-5.17-5.1-11.8-7.47-19.96-7.47zm44.4 2.47V127c0 6.37 1.2 10.85 3.5 13.97 2.3 3.13 5.9 4.48 10.48 4.48 3.67 0 7.1-.73 10.98-2.98a44.06 44.06 0 0 0 11.47-9.98v11.47h19.46V38.22h-19.47v80.32a27.24 27.24 0 0 1-6 5.98 9.87 9.87 0 0 1-5.47 2c-1.82 0-3.2-.37-4-1.5a9.15 9.15 0 0 1-1.5-5.5v-81.3zm-45.4 15.97c2.63 0 4.94.56 6.5 2 1.62 1.43 2 3.17 2 5.47v57.87c0 2.88-.45 4.96-2 6.5a8.84 8.84 0 0 1-6.5 2.5 7.73 7.73 0 0 1-5.98-2.5c-1.44-1.62-2-3.62-2-6.47V61.65c0-2.3.5-4.03 2-5.47 1.5-1.44 3.56-2 6-2zm-2.48 114.73c-37.92-.06-74.9.45-111.26 2-25.38 0-46.4 20.77-46.4 45.9a766.84 766.84 0 0 0-2 59.88 727.08 727.08 0 0 0 2 59.37c0 25.2 20.97 45.9 46.4 45.9 36.37 1.5 73.34 2.06 111.26 2a2597.28 2597.28 0 0 0 111.25-2c25.44 0 46.4-20.7 46.4-45.9 1.5-19.95 2.06-39.48 2-59.37a737.4 737.4 0 0 0-2-59.87c0-25.1-20.96-45.88-46.4-45.88a2597.28 2597.28 0 0 0-111.25-2zm-134.7 32.94h66.85c1.18 0 2 .8 2 2v20.46c0 1.18-.8 2-2 2h-20.45v118.74c0 1.18-.82 2-2 2H80.07c-1.18 0-2.5-.82-2.5-2V226.3H57.6c-1.17 0-2.48-.8-2.48-2v-20.45c0-1.18 1.3-2 2.5-2zm140.68 0h19.46c1.2 0 2.5.8 2.5 2v39.9c1.62-1.5 3.24-2.5 5-3.5 3.3-1.8 6.6-3 9.97-3 6.86 0 11.78 2.45 15.45 7.5 3.5 4.87 5.5 12.03 5.5 20.96v57.87c0 7.92-1.63 14.14-5 18.45-3.48 4.5-8.54 6.5-14.96 6.5-4.06 0-7.66-.8-10.98-2.5a25.8 25.8 0 0 1-5-3.5v2.5c0 1.2-1.3 2-2.48 2H198.3a1.9 1.9 0 0 1-2-2V203.85c0-1.2.8-2 2-2zm99.78 33.92c9.5 0 16.77 3.25 21.95 8.98 5.1 5.68 8 13.53 8 23.94v26.95c0 1.18-1.32 2-2.5 2H290.6v17.45c0 6.37.8 8.8 1.5 9.97.55.96 1.93 2.5 5 2.5 2.42 0 4.1-.8 4.97-1.98.43-.64 1.5-2.88 1.5-10.5v-7.46c0-1.18.8-2 2-2h19.96c1.18 0 2 .8 2 2v8c0 11.2-2.32 19.62-7.5 25.42-5.23 5.87-13.15 9-23.45 9-9.3 0-17.08-3.25-22.44-9.5-5.3-6.1-8-14.4-8-24.93v-46.92c0-9.6 3.13-17.33 9-23.43 5.86-6.12 13.65-9.5 22.94-9.5zm-174.1 3h19.45c1.18 0 2.5.8 2.5 2v79.8c0 2.63.17 3.63.5 4 .12.2.36 1 1.98 1 .57 0 2.2-.44 4.5-2 1.87-1.24 3.5-2.67 5-4.5v-78.3c0-1.2.8-2 2-2h19.45c1.18 0 1.98.8 1.98 2v104.27h.5c0 1.18-1.3 2-2.48 2h-19.47a1.9 1.9 0 0 1-1.98-2v-6c-2.56 2.5-5.3 4.48-8 6a24.62 24.62 0 0 1-12.45 3.48c-5.2 0-8.8-1.8-11.5-5.47-2.55-3.5-4-8.36-4-14.97v-87.3c0-1.2.84-2 2.02-2zm103.27 19.45a7.42 7.42 0 0 0-4.5 1.02c-.93.43-1.55 1.05-2.5 2v63.34a12.64 12.64 0 0 0 3 2.5c1.2.56 2.67.5 4 .5 2.5 0 3.24-.7 3.48-1 .64-.76 1-2.5 1-6V266.7c0-3-.44-5.06-1.5-6.5a4.87 4.87 0 0 0-3-2zm69.84.5c-2.32 0-4.06.7-5 2-.7.94-1.5 3.13-1.5 7.98v8.5h12.97v-8.5c0-4.8-1.24-6.9-2-7.98-.87-1.24-2.23-2-4.5-2z"/></svg>